<svg xmlns="http://www.w3.org/2000/svg" viewBox="0 0 980 560" role="img" aria-labelledby="title desc">
  <title id="title">Mixer Page performance state controls</title>
  <desc id="desc">Mixer Page performance-state controls arranged by key position. Bank A through Bank D are shown as a horizontal row. Yes and No sit between the bank row and the arrow cluster. Yes aligns with Up, while Bank A through Bank D, No, Left, Down and Right share the lower row.</desc>
  <defs>
    <style>
      .bg { fill: #f7f8fa; }
      .panel { fill: #ffffff; stroke: #8d99a6; stroke-width: 2; }
      .key { fill: #232a31; stroke: #11161b; stroke-width: 2; }
      .key-mid { fill: #35414b; stroke: #11161b; stroke-width: 2; }
      .key-text { fill: #ffffff; font: 700 15px Arial, Helvetica, sans-serif; text-anchor: middle; dominant-baseline: middle; }
      .label { fill: #20262d; font: 700 18px Arial, Helvetica, sans-serif; }
      .body { fill: #303941; font: 15px Arial, Helvetica, sans-serif; }
      .small { fill: #4a5560; font: 13px Arial, Helvetica, sans-serif; }
      .title { fill: #20262d; font: 700 26px Arial, Helvetica, sans-serif; }
      .subtitle { fill: #4a5560; font: 15px Arial, Helvetica, sans-serif; }
      .badge { fill: #eef2f5; stroke: #c2cad3; stroke-width: 1.5; }
      .badge-text { fill: #20262d; font: 700 13px Arial, Helvetica, sans-serif; text-anchor: middle; dominant-baseline: middle; }
      .section { fill: #4a5560; font: 700 13px Arial, Helvetica, sans-serif; text-anchor: middle; }
    </style>
  </defs>

  <rect class="bg" x="0" y="0" width="980" height="560"/>
  <text class="title" x="40" y="44">Mixer Page Performance State Controls</text>
  <text class="subtitle" x="40" y="72">Hold an arrow to preview a state. Use the bank keys, YES or NO while that arrow is held.</text>

  <rect class="panel" x="40" y="105" width="900" height="395" rx="6"/>
  <text class="label" x="70" y="142">Physical key layout</text>
  <text class="body" x="70" y="168">The lower arrow keys line up with the bank row. YES lines up with UP.</text>

  <text class="section" x="252" y="216">Bank keys</text>
  <text class="section" x="548" y="216">Action keys</text>
  <text class="section" x="780" y="216">State arrows</text>

  <g id="top-row">
    <rect class="key-mid" x="506" y="235" width="84" height="54" rx="8"/>
    <text class="key-text" x="548" y="262">YES</text>
    <rect class="badge" x="496" y="302" width="104" height="28" rx="5"/>
    <text class="badge-text" x="548" y="317">Apply state</text>

    <rect class="key" x="738" y="235" width="84" height="54" rx="8"/>
    <text class="key-text" x="780" y="262">UP</text>
    <rect class="badge" x="728" y="302" width="104" height="28" rx="5"/>
    <text class="badge-text" x="780" y="317">State 3</text>
  </g>

  <g id="bottom-row">
    <rect class="key-mid" x="80" y="350" width="84" height="54" rx="8"/>
    <text class="key-text" x="122" y="377">BANK A</text>
    <rect class="badge" x="70" y="417" width="104" height="28" rx="5"/>
    <text class="badge-text" x="122" y="432">Target load</text>

    <rect class="key-mid" x="188" y="350" width="84" height="54" rx="8"/>
    <text class="key-text" x="230" y="377">BANK B</text>
    <rect class="badge" x="178" y="417" width="104" height="28" rx="5"/>
    <text class="badge-text" x="230" y="432">PF autoload</text>

    <rect class="key-mid" x="296" y="350" width="84" height="54" rx="8"/>
    <text class="key-text" x="338" y="377">BANK C</text>
    <rect class="badge" x="286" y="417" width="104" height="28" rx="5"/>
    <text class="badge-text" x="338" y="432">Unused</text>

    <rect class="key-mid" x="404" y="350" width="84" height="54" rx="8"/>
    <text class="key-text" x="446" y="377">BANK D</text>
    <rect class="badge" x="394" y="417" width="104" height="28" rx="5"/>
    <text class="badge-text" x="446" y="432">Unused</text>

    <rect class="key-mid" x="506" y="350" width="84" height="54" rx="8"/>
    <text class="key-text" x="548" y="377">NO</text>
    <rect class="badge" x="496" y="417" width="104" height="28" rx="5"/>
    <text class="badge-text" x="548" y="432">Perf locks</text>

    <rect class="key" x="630" y="350" width="84" height="54" rx="8"/>
    <text class="key-text" x="672" y="377">LEFT</text>
    <rect class="badge" x="620" y="417" width="104" height="28" rx="5"/>
    <text class="badge-text" x="672" y="432">State 2</text>

    <rect class="key" x="738" y="350" width="84" height="54" rx="8"/>
    <text class="key-text" x="780" y="377">DOWN</text>
    <rect class="badge" x="728" y="417" width="104" height="28" rx="5"/>
    <text class="badge-text" x="780" y="432">State 1</text>

    <rect class="key" x="846" y="350" width="84" height="54" rx="8"/>
    <text class="key-text" x="888" y="377">RIGHT</text>
    <rect class="badge" x="836" y="417" width="104" height="28" rx="5"/>
    <text class="badge-text" x="888" y="432">State 4</text>
  </g>

  <rect class="badge" x="70" y="462" width="840" height="28" rx="5"/>
  <text class="small" x="490" y="480" text-anchor="middle">NO edits Perf locks with a Perf encoder. Bank A includes the visible mixer target. Bank B marks PF autoload.</text>
</svg>
